<svg data-v-0dd9719b="" version="1.0" xmlns="http://www.w3.org/2000/svg" xmlns:xlink="http://www.w3.org/1999/xlink" width="100%" height="100%" viewBox="0 0 340.000000 250.000000" preserveAspectRatio="xMidYMid meet" color-interpolation-filters="sRGB" style="margin: auto;"> <rect data-v-0dd9719b="" x="0" y="0" width="100%" height="100%" fill="#fff" fill-opacity="1" class="background"></rect> <rect data-v-0dd9719b="" x="0" y="0" width="100%" height="100%" fill="url(#watermark)" fill-opacity="1" class="watermarklayer"></rect> <g data-v-0dd9719b="" fill="#333" class="icon-text-wrapper icon-svg-group iconsvg" transform="translate(56.01335906982422,101.27874755859375)"><g class="iconsvg-imagesvg" transform="translate(0,1.6077919006347656)"><g><rect fill="#333" fill-opacity="0" stroke-width="2" x="0" y="0" width="60" height="44.22691355112631" class="image-rect"></rect> <svg x="0" y="0" width="60" height="44.22691355112631" filtersec="colorsb3692625574" class="image-svg-svg primary" style="overflow: visible;"><svg xmlns="http://www.w3.org/2000/svg" viewBox="-0.000016380474335164763 -0.017758673056960106 135.70216369628906 100.02776336669922"><g fill-rule="evenodd"><path d="M129.5 36.21a24.23 24.23 0 1 1-36.06 32.38c-14.28-15.9 2.14-30.53-5.75-39.32-8.06-9-14.66-1.54-21.41-9.06A12.12 12.12 0 0 1 84.31 4C91.07 11.54 83 17.3 91 26.27c7.88 8.79 24.2-6 38.47 9.94z" fill="#002d56"></path><path d="M62 31.23a13.4 13.4 0 1 1 18 19.95c-8.79 7.9-16.9-1.17-21.75 3.19s-.85 8.1-5 11.84a6.7 6.7 0 0 1-9-10c4.15-3.74 7.35.73 12.31-3.72S53.24 39.13 62 31.23z" fill="#00a4e4"></path><path d="M50.29 32.17a10.62 10.62 0 1 1-15.81 14.19c-6.26-7 .93-13.39-2.52-17.24s-6.43-.68-9.39-4a5.31 5.31 0 0 1 7.9-7.1c3 3.3-.58 5.82 3 9.76S44 25.19 50.29 32.17zM60.81 71.89a8.79 8.79 0 0 1 13.08-11.74c5.17 5.77-.78 11.08 2.08 14.26s5.32.56 7.77 3.29a4.39 4.39 0 0 1-6.54 5.87c-2.45-2.73.48-4.82-2.44-8.07s-8.78 2.16-14-3.61z" fill="#002d56"></path><path d="M97.23 78.71a10.65 10.65 0 1 1-10.65 10.64 10.64 10.64 0 0 1 10.65-10.64z" fill="#00a4e4"></path><path d="M84.07 63.68a4.82 4.82 0 1 1-4.82 4.81 4.81 4.81 0 0 1 4.82-4.81z" fill="#002d56"></path><path d="M99.53 9.17a7.34 7.34 0 1 1-7.33 7.33 7.34 7.34 0 0 1 7.33-7.33zM47.47 8A8.49 8.49 0 1 1 39 16.5 8.48 8.48 0 0 1 47.47 8zM12.23 31.75A12.23 12.23 0 1 1 0 44a12.23 12.23 0 0 1 12.23-12.25z" fill="#00a4e4"></path><path d="M30.28 52a6 6 0 1 1-6 6 6 6 0 0 1 6-6z" fill="#002d56"></path></g></svg></svg> <!----></g></g> <g transform="translate(67,0)"><g data-gra="path-name" fill-rule="" class="tp-name iconsvg-namesvg" transform="translate(0,0)"><g transform="scale(1)"><g><path d="M6.17-29.79L6.17-28.21C6.17-27.36 6.66-26.86 7.51-26.86L14.71-26.86C15.39-26.86 15.71-26.41 15.39-25.79L12.69-20.65C12.46-20.2 12.15-20.02 11.65-20.02L4.54-20.02C3.69-20.02 3.19-19.53 3.19-18.68L3.19-17.1C3.19-16.25 3.69-15.75 4.54-15.75L9-15.75C9.67-15.75 9.99-15.3 9.67-14.67L2.7-1.21C2.21-0.32 2.65 0.4 3.69 0.4L10.21 0.4C10.93 0.4 11.43 0.09 11.79-0.58L19.3-15.12C19.53-15.57 19.84-15.75 20.34-15.75L21.06-15.75C21.55-15.75 21.87-15.57 22.09-15.12L29.61-0.58C29.97 0.09 30.46 0.4 31.18 0.4L37.71 0.4C38.74 0.4 39.2-0.32 38.7-1.21L31.72-14.67C31.41-15.3 31.72-15.75 32.4-15.75L36.85-15.75C37.71-15.75 38.2-16.25 38.2-17.1L38.2-18.68C38.2-19.53 37.71-20.02 36.85-20.02L22.99-20.02C22.32-20.02 22-20.47 22.32-21.11L25.02-26.23C25.24-26.68 25.56-26.86 26.05-26.86L33.88-26.86C34.74-26.86 35.23-27.36 35.23-28.21L35.23-29.79C35.23-30.64 34.74-31.14 33.88-31.14L7.51-31.14C6.66-31.14 6.17-30.64 6.17-29.79ZM63.99 0.36L69.08 0.36C69.93 0.36 70.42-0.14 70.42-0.99L70.42-1.3C70.42-1.89 70.74-2.21 71.32-2.21L78.66-2.21C79.52-2.21 80.01-2.7 80.01-3.55L79.97-5.13C79.97-6.03 79.47-6.48 78.61-6.48L71.32-6.48C70.74-6.48 70.42-6.79 70.42-7.29 70.42-7.79 70.74-8.05 71.32-8.05L77.72-8.05C78.57-8.05 79.06-8.55 79.06-9.4L79.06-10.98C79.06-11.83 78.57-12.33 77.72-12.33L71.32-12.33C70.74-12.33 70.42-12.64 70.42-13.14 70.42-13.63 70.74-13.9 71.32-13.9L77.72-13.9C78.57-13.9 79.06-14.4 79.06-15.25L79.06-18.86C79.06-19.44 79.38-19.75 79.97-19.75L80.01-19.75C80.59-19.75 80.91-20.25 80.91-21.11L80.91-22.68C80.91-23.54 80.41-24.03 79.56-24.03 79.25-24.03 79.06-24.34 79.06-24.93L79.06-28.53C79.06-29.38 78.57-29.88 77.72-29.88L71.32-29.88C70.74-29.88 70.42-30.2 70.42-30.78L70.42-30.96C70.42-31.63 69.93-32.04 69.08-32.04L63.05-32.04C61.92-32.04 61.52-31.27 62.23-30.38 62.46-30.11 61.96-29.88 61.2-29.88L57.6-29.88C56.74-29.88 56.25-29.38 56.25-28.53L56.25-26.95C56.25-26.1 56.74-25.61 57.6-25.61L61.74-25.61C62.33-25.61 62.64-25.33 62.64-24.84 62.64-24.34 62.33-24.03 61.74-24.03L55.8-24.03C54.95-24.03 54.45-23.54 54.45-22.68L54.45-21.11C54.45-20.25 54.95-19.75 55.8-19.75L61.74-19.75C62.33-19.75 62.64-19.48 62.64-18.99 62.64-18.5 62.33-18.18 61.74-18.18L56.66-18.18C55.8-18.18 55.3-17.68 55.3-16.83L55.3-15.25C55.3-14.4 55.8-13.9 56.66-13.9L61.74-13.9C62.33-13.9 62.64-13.63 62.64-13.14 62.64-12.64 62.33-12.33 61.74-12.33L56.61-12.33C55.75-12.33 55.26-11.83 55.26-10.98L55.26-9.4C55.26-8.55 55.75-8.05 56.61-8.05L61.74-8.05C62.33-8.05 62.64-7.79 62.64-7.29 62.64-6.79 62.33-6.48 61.74-6.48L55.66-6.48C54.81-6.48 54.31-5.98 54.31-5.13L54.36-3.55C54.36-2.65 54.85-2.21 55.71-2.21L61.74-2.21C62.33-2.21 62.64-1.89 62.64-1.3L62.64-0.94C62.64-0.14 63.13 0.36 63.99 0.36ZM51.12-0.81L53.1-10.84C53.28-11.74 52.88-12.33 51.93-12.33L47.02-12.33C46.21-12.33 45.77-11.92 45.59-11.12L43.56-1.08C43.38-0.18 43.83 0.4 44.77 0.4L49.68 0.4C50.49 0.4 50.98 0 51.12-0.81ZM53.14-15.52L52.06-20.56C51.88-21.33 51.39-21.73 50.58-21.73L45.72-21.73C44.77-21.73 44.32-21.15 44.5-20.25L45.59-15.21C45.77-14.45 46.26-14.04 47.07-14.04L51.93-14.04C52.88-14.04 53.32-14.58 53.14-15.52ZM53.1-24.93L52.02-29.97C51.84-30.73 51.34-31.14 50.53-31.14L45.67-31.14C44.73-31.14 44.28-30.55 44.46-29.65L45.54-24.61C45.72-23.85 46.21-23.45 47.02-23.45L51.88-23.45C52.83-23.45 53.28-23.98 53.1-24.93ZM72.22-24.84C72.22-24.3 71.91-24.03 71.32-24.03L70.74-24.03C70.16-24.03 69.84-24.34 69.84-24.84 69.84-25.33 70.16-25.61 70.74-25.61L71.32-25.61C71.91-25.61 72.22-25.33 72.22-24.84ZM69.84-18.99C69.84-19.48 70.16-19.75 70.74-19.75L71.32-19.75C71.91-19.75 72.22-19.48 72.22-18.99 72.22-18.5 71.91-18.18 71.32-18.18L70.74-18.18C70.16-18.18 69.84-18.5 69.84-18.99ZM100.94-3.82L100.94-1.75C100.94-0.9 101.43-0.4 102.28-0.4L120.87-0.4C121.72-0.4 122.22-0.9 122.22-1.75L122.22-3.82C122.22-4.68 121.72-5.17 120.87-5.17L116.37-5.17C115.78-5.17 115.47-5.49 115.47-6.08L115.47-24.7C115.47-25.29 115.78-25.61 116.37-25.61L120.06-25.61C120.91-25.61 121.41-26.1 121.41-26.95L121.41-28.93C121.41-29.79 120.91-30.29 120.06-30.29L103.09-30.29C102.24-30.29 101.75-29.79 101.75-28.93L101.75-26.95C101.75-26.1 102.24-25.61 103.09-25.61L106.92-25.61C107.5-25.61 107.82-25.29 107.82-24.7L107.82-6.08C107.82-5.49 107.5-5.17 106.92-5.17L102.28-5.17C101.43-5.17 100.94-4.68 100.94-3.82ZM86.13-17.46L86.89-17.46C87.61-17.46 87.88-16.96 87.48-16.38L85.27-13.14C84.91-12.55 84.78-12.11 84.78-11.47L84.78-9.45C84.78-8.59 85.27-8.1 86.13-8.1L97.97-8.1C98.82-8.1 99.31-8.59 99.31-9.45L99.31-11.03C99.31-11.88 98.82-12.38 97.97-12.38L94.81-12.38C94.09-12.38 93.87-12.87 94.23-13.46L98.37-20.11C98.95-21.02 98.55-21.73 97.47-21.73L94.19-21.73C93.47-21.73 93.19-22.23 93.55-22.81L97.88-30.38C98.41-31.27 97.97-31.99 96.93-31.99L90.36-31.99C89.28-31.99 88.92-31.32 89.55-30.38 89.59-30.24 89.5-30.02 89.28-29.61L85.23-22.5C84.91-21.96 84.78-21.46 84.78-20.84L84.78-18.81C84.78-17.95 85.27-17.46 86.13-17.46ZM97.88-5.4L86.08-4.72C85.23-4.68 84.78-4.18 84.78-3.33L84.78-1.75C84.78-0.85 85.32-0.4 86.17-0.45L97.97-1.13C98.82-1.17 99.27-1.67 99.27-2.52L99.27-4.09C99.27-5 98.73-5.44 97.88-5.4ZM134.37-12.55L134.37-4.95C134.37-4.37 134.05-4.05 133.47-4.05L130.86-4.05C130.09-4.05 129.6-3.69 129.28-3.01L128.52-1.26C128.11-0.32 128.56 0.32 129.55 0.32L137.7 0.32C139.36 0.32 140.76-0.99 140.76-2.65L140.76-16.38C140.76-17.23 140.26-17.73 139.41-17.73 139.14-17.73 139.09-18.13 139.19-18.72L140.44-26.1C140.53-26.73 140.58-27.09 140.58-27.72L140.53-29.83C140.53-30.73 140.04-31.18 139.19-31.18L127.89-31.18C127.03-31.18 126.54-30.69 126.54-29.83L126.54-28.26C126.54-27.4 127.03-26.91 127.89-26.91L133.92-26.91C134.5-26.91 134.82-26.55 134.73-25.92L133.38-18.54C133.29-18 132.97-17.73 132.44-17.73L132.34-17.73C131.8-17.73 131.49-18.09 131.58-18.68L132.3-23.85C132.44-24.79 131.98-25.29 131.08-25.29L129.1-25.29C128.29-25.29 127.8-24.93 127.66-24.07L126.18-14.89C126.04-13.95 126.54-13.46 127.44-13.46L133.47-13.46C134.05-13.46 134.37-13.14 134.37-12.55ZM163.3-1.13L163.3-2.65C163.3-3.51 162.81-4 161.95-4L160.65-4C160.2-4 159.84-4.14 159.52-4.41L158.67-5.08C158.17-5.49 158.17-5.98 158.71-6.34L161.91-8.5C162.5-8.91 162.76-9.4 162.76-10.13L162.76-13.99C162.76-14.85 162.27-15.34 161.41-15.34L152.69-15.34C152.01-15.34 151.69-15.75 152.01-16.38 152.32-17.01 151.74-17.37 150.7-17.37L150.07-17.37C149.35-17.37 149.08-17.86 149.44-18.45L150.3-19.93C150.84-20.84 150.44-21.55 149.35-21.55L145.48-21.55C144.76-21.55 144.22-21.29 143.86-20.61L142.24-17.73C141.75-16.83 142.15-16.11 143.19-16.11L144.09-16.11C144.76-16.11 145.03-15.66 144.72-15.03L142.24-10.35C141.75-9.45 142.15-8.73 143.19-8.73L144.9-8.73C145.35-8.73 145.66-8.59 146.02-8.32L147.87-6.88C148.36-6.48 148.32-5.98 147.82-5.63L145.98-4.27C145.62-4 145.26-3.92 144.85-3.92L142.74-3.92C141.88-3.92 141.39-3.42 141.39-2.56L141.39-1.03C141.39-0.18 141.88 0.32 142.74 0.32L147.96 0.32C148.59 0.32 149.08 0.18 149.63-0.22L152.64-2.25C153.04-2.52 153.49-2.52 153.9-2.21L156.28-0.36C156.78 0.04 157.27 0.22 157.95 0.22L161.95 0.22C162.81 0.22 163.3-0.27 163.3-1.13ZM155.56-28.62L155.74-28.08C155.97-27.49 155.7-27.09 155.07-27.04L151.15-26.82C150.39-26.77 150.12-27.31 150.61-27.9L152.64-30.42C153.36-31.32 152.95-32.09 151.83-32.09L148-32.09C147.28-32.09 146.79-31.81 146.34-31.27L143.19-27.27C142.78-26.73 142.6-26.28 142.6-25.61L142.6-23.71C142.6-22.81 143.1-22.32 144-22.41L156.6-23.45C157.09-23.49 157.41-23.31 157.54-23.04 157.63-22.72 158.08-22.59 158.85-22.59L162.27-22.59C163.26-22.59 163.71-23.22 163.35-24.16L161.55-29.07C161.28-29.83 160.74-30.15 159.97-30.15L156.64-30.15C155.65-30.15 155.25-29.52 155.56-28.62ZM154.89-19.93L156.51-17.23C156.87-16.61 157.41-16.34 158.13-16.34L161.91-16.34C162.99-16.34 163.39-17.05 162.85-17.95L161.28-20.61C160.92-21.24 160.38-21.55 159.66-21.55L155.79-21.55C154.71-21.55 154.35-20.88 154.89-19.93ZM125.91-9.58L125.91-7.88C125.91-6.97 126.45-6.48 127.35-6.61L131.94-7.2C132.75-7.29 133.2-7.79 133.2-8.59L133.2-10.3C133.2-11.21 132.66-11.7 131.76-11.56L127.17-10.98C126.36-10.89 125.91-10.39 125.91-9.58ZM156.42-10.8L153.94-8.91C153.49-8.55 153.13-8.55 152.69-8.91L150.07-10.98C149.63-11.34 149.49-11.56 149.53-11.7 149.58-11.83 149.89-11.92 150.39-11.92L156.06-11.92C156.91-11.92 157.09-11.29 156.42-10.8Z" transform="translate(-2.4998700618743896, 32.09000015258789)"></path></g> <!----> <!----> <!----> <!----> <!----> <!----> <!----></g></g> <g data-gra="path-slogan" fill-rule="" class="tp-slogan iconsvg-slogansvg" fill="#333" transform="translate(5,38.4900016784668)"><rect x="0" height="1" y="3.9750003814697266" width="19.21664047241211"></rect> <rect height="1" y="3.9750003814697266" width="19.21664047241211" x="131.75664138793945"></rect> <g transform="translate(22.21664047241211,0)"><g transform="scale(1)"><path d="M3.09-7.59L0.19-7.59L0.19-8.58L7.13-8.58L7.13-7.59L4.22-7.59L4.22 0L3.09 0L3.09-7.59ZM8.34-8.58L9.52-8.58L9.52 0L8.34 0L8.34-8.58ZM17.16 0L16.31-2.48L12.84-2.48L11.95 0L10.78 0L14.02-8.58L15.33-8.58L18.42 0L17.16 0ZM14.58-7.31L13.22-3.52L15.89-3.52L14.63-7.31L14.58-7.31ZM20.86-8.58L25.17-1.64L25.17-8.58L26.30-8.58L26.30 0L24.98 0L20.63-6.94L20.58-6.94L20.58 0L19.45 0L19.45-8.58L20.86-8.58ZM27.38-1.92L27.38-2.77L28.45-2.77L28.45-2.16Q28.45-0.75 29.77-0.75L29.77-0.75Q31.13-0.75 31.13-2.25L31.13-2.25L31.13-8.58L32.30-8.58L32.30-2.30Q32.25 0.09 29.81 0.14L29.81 0.14Q27.52 0.09 27.38-1.92L27.38-1.92ZM34.27-8.58L35.44-8.58L35.44 0L34.27 0L34.27-8.58ZM38.81-8.58L43.13-1.64L43.13-8.58L44.25-8.58L44.25 0L42.94 0L38.58-6.94L38.53-6.94L38.53 0L37.41 0L37.41-8.58L38.81-8.58ZM50.53-5.06L55.03-5.06L55.03-8.58L56.20-8.58L56.20 0L55.03 0L55.03-3.98L50.53-3.98L50.53 0L49.36 0L49.36-8.58L50.53-8.58L50.53-5.06ZM64.78-4.27L64.78-4.27Q64.59-7.64 61.78-7.83L61.78-7.83Q58.92-7.69 58.78-4.27L58.78-4.27Q58.92-0.94 61.78-0.80L61.78-0.80Q64.59-0.98 64.78-4.27ZM65.95-4.27L65.95-4.27Q65.67 0 61.78 0.14L61.78 0.14Q57.84 0 57.56-4.27L57.56-4.27Q57.80-8.72 61.78-8.81L61.78-8.81Q65.67-8.67 65.95-4.27ZM68.72-8.58L73.03-1.64L73.03-8.58L74.16-8.58L74.16 0L72.84 0L68.48-6.94L68.44-6.94L68.44 0L67.31 0L67.31-8.58L68.72-8.58ZM82.36-3.61L79.73-3.61L79.73-4.59L83.48-4.59L83.48 0L82.73 0L82.45-1.08Q81.47 0.09 79.64 0.14L79.64 0.14Q77.91 0.14 76.97-0.75L76.97-0.75Q75.56-2.06 75.61-4.36L75.61-4.36Q75.94-8.63 79.69-8.81L79.69-8.81Q82.88-8.63 83.34-6L83.34-6L82.22-6Q81.75-7.78 79.64-7.83L79.64-7.83Q76.97-7.64 76.83-4.31L76.83-4.31Q76.83-0.75 79.69-0.75L79.69-0.75Q80.72-0.75 81.47-1.31L81.47-1.31Q82.41-2.06 82.36-3.61L82.36-3.61ZM84.56-1.92L84.56-2.77L85.64-2.77L85.64-2.16Q85.64-0.75 86.95-0.75L86.95-0.75Q88.31-0.75 88.31-2.25L88.31-2.25L88.31-8.58L89.48-8.58L89.48-2.30Q89.44 0.09 87 0.14L87 0.14Q84.70 0.09 84.56-1.92L84.56-1.92ZM96.94-3.19L96.94-8.58L98.11-8.58L98.11-3.05Q97.97 0.05 94.59 0.14L94.59 0.14Q91.45 0.05 91.31-2.86L91.31-2.86L91.31-8.58L92.48-8.58L92.48-3.19Q92.53-0.84 94.64-0.80L94.64-0.80Q96.94-0.84 96.94-3.19L96.94-3.19ZM101.30-8.58L105.61-1.64L105.61-8.58L106.73-8.58L106.73 0L105.42 0L101.06-6.94L101.02-6.94L101.02 0L99.89 0L99.89-8.58L101.30-8.58Z" transform="translate(-0.1875, 8.8125)"></path></g></g></g></g></g><defs v-gra="od"></defs></svg>